<?xml version="1.0" encoding="utf-8"?>
<!-- Generator: Adobe Illustrator 26.0.2, SVG Export Plug-In . SVG Version: 6.00 Build 0)  -->
<svg version="1.1" xmlns="http://www.w3.org/2000/svg" xmlns:xlink="http://www.w3.org/1999/xlink" x="0px" y="0px"
	 viewBox="0 0 128 128" style="enable-background:new 0 0 128 128;" xml:space="preserve">
<style type="text/css">
	.st0{fill:url(#SVGID_1_);stroke:#231815;stroke-width:5;stroke-miterlimit:10;}
	.st1{fill:url(#SVGID_00000070083736400205156370000002072328920035651775_);stroke:#231815;stroke-width:5;stroke-miterlimit:10;}
	.st2{fill:url(#SVGID_00000008141490159337582430000006834871055868663682_);stroke:#231815;stroke-width:4;stroke-miterlimit:10;}
	.st3{opacity:0.86;fill:url(#SVGID_00000020387597411946075080000012241393336908626579_);stroke:#231815;stroke-miterlimit:10;}
	.st4{opacity:0.86;fill:url(#SVGID_00000077300118375150724450000008605031163070987670_);stroke:#231815;stroke-miterlimit:10;}
	.st5{opacity:0.86;fill:url(#SVGID_00000177455196507483854990000005097007135368714687_);stroke:#231815;stroke-miterlimit:10;}
	.st6{opacity:0.86;fill:url(#SVGID_00000052079043097975074170000003522458631221207983_);stroke:#231815;stroke-miterlimit:10;}
	.st7{opacity:0.86;fill:url(#SVGID_00000110432884000709585090000007858528047686009494_);stroke:#231815;stroke-miterlimit:10;}
	.st8{opacity:0.86;fill:url(#SVGID_00000171713869409607825450000013620574466027633083_);stroke:#231815;stroke-miterlimit:10;}
	.st9{opacity:0.86;fill:url(#SVGID_00000119110880069666758660000007050374712268302214_);stroke:#231815;stroke-miterlimit:10;}
	.st10{fill:url(#SVGID_00000089538860893745074270000017910641502045111450_);stroke:#231815;stroke-width:2;stroke-miterlimit:10;}
	.st11{fill:none;stroke:#231815;stroke-miterlimit:10;}
</style>
<g id="图层_1">
	<linearGradient id="SVGID_1_" gradientUnits="userSpaceOnUse" x1="17.7566" y1="64.5" x2="112.1384" y2="64.5">
		<stop  offset="0" style="stop-color:#8FE468"/>
		<stop  offset="1" style="stop-color:#65E6FE"/>
	</linearGradient>
	<path class="st0" d="M63.15,117.95L19.55,92.78c-1.11-0.64-1.8-1.83-1.8-3.11V39.33c0-1.28,0.69-2.47,1.8-3.11l43.59-25.17
		c1.11-0.64,2.48-0.64,3.6,0l43.59,25.17c1.11,0.64,1.8,1.83,1.8,3.11v50.34c0,1.28-0.69,2.47-1.8,3.11l-43.59,25.17
		C65.63,118.6,64.26,118.6,63.15,117.95z"/>
	
		<linearGradient id="SVGID_00000137838999464336482760000011409641717621079436_" gradientUnits="userSpaceOnUse" x1="37.6618" y1="80.1621" x2="92.1624" y2="48.9261">
		<stop  offset="0" style="stop-color:#187FC4"/>
		<stop  offset="1" style="stop-color:#187FC4;stop-opacity:0"/>
	</linearGradient>
	
		<path style="fill:url(#SVGID_00000137838999464336482760000011409641717621079436_);stroke:#231815;stroke-width:5;stroke-miterlimit:10;" d="
		M96.09,48.54l0.02,31.89c0,1.25-0.66,2.4-1.75,3.03L66.76,99.41c-1.08,0.62-2.41,0.63-3.49,0L35.64,83.49
		c-1.08-0.62-1.75-1.78-1.75-3.02l-0.02-31.89c0-1.25,0.66-2.4,1.75-3.03l27.61-15.96c1.08-0.62,2.41-0.63,3.49,0l27.63,15.93
		C95.42,46.13,96.09,47.29,96.09,48.54z"/>
</g>
<g id="图层_3">
	
		<linearGradient id="SVGID_00000150101278790056430730000000119224852389195164_" gradientUnits="userSpaceOnUse" x1="9.4103" y1="118.5219" x2="121.2648" y2="95.6733">
		<stop  offset="0" style="stop-color:#009944"/>
		<stop  offset="0.1282" style="stop-color:#039A50"/>
		<stop  offset="0.3573" style="stop-color:#0C9D6E"/>
		<stop  offset="0.6608" style="stop-color:#1BA1A0"/>
		<stop  offset="1" style="stop-color:#2EA7E0"/>
	</linearGradient>
	
		<path style="fill:url(#SVGID_00000150101278790056430730000000119224852389195164_);stroke:#231815;stroke-width:4;stroke-miterlimit:10;" d="
		M117.97,121.54H11.19c-1.87,0-3.38-1.51-3.38-3.38V96.34c0-1.87,1.51-3.38,3.38-3.38h106.78c1.87,0,3.38,1.51,3.38,3.38v21.81
		C121.35,120.03,119.84,121.54,117.97,121.54z"/>
	<g>
		<path d="M19.82,105.26c-0.17,0.29-0.43,0.52-0.77,0.68c-0.34,0.16-0.73,0.24-1.2,0.24c-0.64,0-1.19-0.15-1.65-0.45
			c-0.46-0.3-0.76-0.7-0.9-1.2l0.65-0.38c0.16,0.41,0.4,0.73,0.72,0.95c0.32,0.22,0.71,0.33,1.19,0.33c0.43,0,0.77-0.1,1.01-0.29
			c0.24-0.19,0.36-0.46,0.36-0.8c0-0.28-0.08-0.5-0.23-0.67s-0.33-0.3-0.55-0.4c-0.22-0.1-0.52-0.2-0.9-0.32
			c-0.43-0.13-0.77-0.25-1.03-0.36c-0.26-0.11-0.48-0.29-0.66-0.51c-0.18-0.23-0.27-0.53-0.27-0.9c0-0.38,0.1-0.7,0.29-0.98
			c0.19-0.27,0.46-0.48,0.8-0.62c0.34-0.14,0.72-0.21,1.14-0.21c0.59,0,1.06,0.13,1.43,0.39c0.36,0.26,0.61,0.58,0.73,0.98
			l-0.65,0.38c-0.14-0.32-0.33-0.57-0.57-0.75c-0.24-0.18-0.57-0.27-0.97-0.27c-0.41,0-0.73,0.09-0.98,0.27s-0.37,0.43-0.37,0.73
			c0,0.23,0.07,0.41,0.2,0.56c0.14,0.14,0.3,0.26,0.51,0.34c0.2,0.08,0.48,0.18,0.84,0.28c0.45,0.13,0.81,0.26,1.09,0.39
			s0.51,0.31,0.71,0.57c0.2,0.25,0.3,0.58,0.3,1C20.08,104.63,20,104.97,19.82,105.26z"/>
		<path d="M21.05,102.48c0.21-0.37,0.48-0.66,0.82-0.87c0.34-0.21,0.71-0.31,1.11-0.31s0.77,0.1,1.11,0.31s0.61,0.49,0.82,0.86
			c0.2,0.37,0.31,0.8,0.31,1.27s-0.1,0.9-0.31,1.26s-0.48,0.66-0.82,0.86s-0.71,0.31-1.11,0.31s-0.77-0.1-1.11-0.31
			c-0.35-0.21-0.62-0.49-0.82-0.86s-0.31-0.79-0.31-1.26C20.74,103.27,20.85,102.85,21.05,102.48z M21.74,104.66
			c0.13,0.26,0.3,0.46,0.51,0.59c0.22,0.14,0.46,0.21,0.73,0.21s0.51-0.07,0.73-0.21c0.22-0.14,0.39-0.34,0.51-0.59
			s0.18-0.56,0.18-0.92c0-0.35-0.06-0.66-0.18-0.92s-0.29-0.46-0.51-0.59c-0.22-0.14-0.46-0.21-0.73-0.21s-0.51,0.07-0.73,0.21
			c-0.22,0.14-0.39,0.34-0.51,0.59s-0.19,0.56-0.19,0.92C21.55,104.1,21.61,104.4,21.74,104.66z"/>
		<path d="M29.64,99.23h0.77v6.85h-0.67c-0.01-0.31-0.03-0.58-0.05-0.79c-0.17,0.3-0.39,0.52-0.67,0.67
			c-0.28,0.15-0.57,0.22-0.89,0.22c-0.36,0-0.7-0.1-1.01-0.29c-0.31-0.19-0.57-0.47-0.76-0.84s-0.29-0.81-0.29-1.31
			c0-0.5,0.1-0.93,0.29-1.3s0.45-0.65,0.76-0.85s0.65-0.29,1.01-0.29c0.3,0,0.58,0.07,0.85,0.21c0.27,0.14,0.49,0.35,0.67,0.62
			V99.23z M29.22,105.05c0.28-0.28,0.42-0.71,0.42-1.3c0-0.59-0.14-1.02-0.42-1.3c-0.28-0.28-0.62-0.41-1.01-0.41
			c-0.41,0-0.74,0.15-0.98,0.45c-0.25,0.3-0.37,0.72-0.37,1.26c0,0.55,0.12,0.97,0.37,1.27c0.25,0.3,0.57,0.45,0.98,0.45
			C28.6,105.46,28.94,105.32,29.22,105.05z"/>
		<path d="M31.83,100.42c-0.1-0.11-0.15-0.23-0.15-0.37c0-0.14,0.05-0.26,0.15-0.36c0.1-0.1,0.22-0.16,0.36-0.16
			c0.14,0,0.27,0.05,0.36,0.15c0.1,0.1,0.15,0.23,0.15,0.37c0,0.14-0.05,0.26-0.15,0.37c-0.1,0.1-0.22,0.16-0.36,0.16
			C32.04,100.57,31.92,100.52,31.83,100.42z M32.56,106.08h-0.77v-4.67h0.77V106.08z"/>
		<path d="M37.03,101.4h0.76v4.68h-0.67c-0.01-0.31-0.03-0.56-0.05-0.76c-0.16,0.29-0.37,0.5-0.64,0.65
			c-0.27,0.14-0.56,0.22-0.88,0.22c-0.5,0-0.9-0.17-1.2-0.5c-0.3-0.33-0.45-0.8-0.45-1.4v-2.88h0.77v2.67
			c0,0.44,0.09,0.79,0.27,1.03c0.18,0.24,0.44,0.36,0.78,0.36c0.23,0,0.44-0.05,0.64-0.16c0.2-0.11,0.36-0.26,0.49-0.47
			c0.13-0.21,0.19-0.47,0.19-0.77V101.4z"/>
		<path d="M45.15,101.78c0.28,0.32,0.41,0.78,0.41,1.38v2.92h-0.76v-2.66c0-0.45-0.08-0.79-0.23-1.03
			c-0.16-0.24-0.39-0.36-0.69-0.36c-0.31,0-0.58,0.12-0.8,0.36c-0.22,0.24-0.33,0.58-0.33,1.04v2.66H42v-2.66
			c0-0.44-0.08-0.79-0.23-1.03c-0.16-0.24-0.38-0.36-0.68-0.36c-0.31,0-0.58,0.12-0.8,0.36c-0.22,0.24-0.33,0.59-0.33,1.03v2.66
			h-0.77v-4.67h0.68c0.01,0.2,0.02,0.44,0.04,0.71c0.16-0.27,0.35-0.47,0.59-0.61c0.24-0.14,0.5-0.21,0.78-0.21
			c0.31,0,0.59,0.08,0.82,0.25c0.24,0.17,0.41,0.41,0.52,0.73c0.15-0.33,0.35-0.58,0.61-0.74s0.54-0.24,0.84-0.24
			C44.51,101.3,44.87,101.46,45.15,101.78z"/>
		<path d="M55.09,106.08h-1.04l-0.8-0.89c-0.55,0.66-1.24,0.99-2.05,0.99c-0.4,0-0.76-0.08-1.08-0.22
			c-0.32-0.15-0.58-0.37-0.77-0.67c-0.19-0.29-0.29-0.64-0.29-1.04c0-0.5,0.13-0.91,0.4-1.22c0.27-0.31,0.64-0.59,1.12-0.84
			c-0.26-0.31-0.44-0.57-0.55-0.8c-0.11-0.23-0.16-0.46-0.16-0.72c0-0.32,0.08-0.6,0.24-0.83c0.16-0.23,0.37-0.41,0.63-0.53
			c0.26-0.12,0.55-0.18,0.87-0.18c0.34,0,0.63,0.06,0.88,0.19c0.25,0.13,0.44,0.3,0.58,0.53c0.14,0.22,0.2,0.47,0.2,0.76
			s-0.07,0.52-0.21,0.73s-0.31,0.38-0.52,0.52c-0.21,0.14-0.48,0.3-0.82,0.46l1.47,1.63c0.23-0.52,0.38-1.11,0.45-1.77h0.77
			c-0.13,0.93-0.37,1.71-0.71,2.35L55.09,106.08z M52.76,104.65L51,102.68c-0.35,0.2-0.63,0.42-0.82,0.66
			c-0.2,0.23-0.29,0.53-0.29,0.88c0,0.4,0.13,0.71,0.38,0.92s0.57,0.32,0.96,0.32C51.83,105.46,52.34,105.19,52.76,104.65z
			 M50.83,101.18c0.09,0.17,0.24,0.39,0.46,0.65c0.37-0.19,0.65-0.37,0.85-0.54c0.19-0.18,0.29-0.4,0.29-0.66
			c0-0.22-0.07-0.41-0.21-0.55c-0.14-0.14-0.35-0.22-0.62-0.22s-0.49,0.07-0.65,0.22c-0.17,0.15-0.25,0.34-0.25,0.59
			C50.69,100.83,50.74,101,50.83,101.18z"/>
		<path d="M62.06,105.26c-0.17,0.29-0.43,0.52-0.77,0.68c-0.34,0.16-0.73,0.24-1.2,0.24c-0.64,0-1.19-0.15-1.65-0.45
			c-0.46-0.3-0.76-0.7-0.9-1.2l0.65-0.38c0.16,0.41,0.4,0.73,0.72,0.95c0.32,0.22,0.71,0.33,1.19,0.33c0.43,0,0.77-0.1,1.01-0.29
			c0.24-0.19,0.36-0.46,0.36-0.8c0-0.28-0.08-0.5-0.23-0.67s-0.33-0.3-0.55-0.4c-0.22-0.1-0.52-0.2-0.9-0.32
			c-0.43-0.13-0.77-0.25-1.03-0.36c-0.26-0.11-0.48-0.29-0.66-0.51c-0.18-0.23-0.27-0.53-0.27-0.9c0-0.38,0.1-0.7,0.29-0.98
			c0.19-0.27,0.46-0.48,0.8-0.62c0.34-0.14,0.72-0.21,1.14-0.21c0.59,0,1.06,0.13,1.43,0.39c0.36,0.26,0.61,0.58,0.73,0.98
			l-0.65,0.38c-0.14-0.32-0.33-0.57-0.57-0.75c-0.24-0.18-0.57-0.27-0.97-0.27c-0.41,0-0.73,0.09-0.98,0.27s-0.37,0.43-0.37,0.73
			c0,0.23,0.07,0.41,0.2,0.56c0.14,0.14,0.3,0.26,0.51,0.34c0.2,0.08,0.48,0.18,0.84,0.28c0.45,0.13,0.81,0.26,1.09,0.39
			s0.51,0.31,0.71,0.57c0.2,0.25,0.3,0.58,0.3,1C62.32,104.63,62.23,104.97,62.06,105.26z"/>
		<path d="M63.29,102.48c0.21-0.37,0.48-0.66,0.82-0.87c0.34-0.21,0.71-0.31,1.11-0.31s0.77,0.1,1.11,0.31
			c0.34,0.2,0.61,0.49,0.82,0.86c0.2,0.37,0.31,0.8,0.31,1.27s-0.1,0.9-0.31,1.26s-0.48,0.66-0.82,0.86
			c-0.34,0.21-0.71,0.31-1.11,0.31s-0.77-0.1-1.11-0.31c-0.35-0.21-0.62-0.49-0.82-0.86s-0.31-0.79-0.31-1.26
			C62.98,103.27,63.08,102.85,63.29,102.48z M63.98,104.66c0.13,0.26,0.3,0.46,0.51,0.59c0.22,0.14,0.46,0.21,0.73,0.21
			s0.51-0.07,0.73-0.21c0.22-0.14,0.39-0.34,0.51-0.59s0.18-0.56,0.18-0.92c0-0.35-0.06-0.66-0.18-0.92s-0.29-0.46-0.51-0.59
			c-0.22-0.14-0.46-0.21-0.73-0.21s-0.51,0.07-0.73,0.21c-0.22,0.14-0.39,0.34-0.51,0.59c-0.13,0.26-0.19,0.56-0.19,0.92
			C63.79,104.1,63.85,104.4,63.98,104.66z"/>
		<path d="M71.88,99.23h0.76v6.85h-0.67c-0.01-0.31-0.03-0.58-0.05-0.79c-0.17,0.3-0.39,0.52-0.67,0.67
			c-0.28,0.15-0.57,0.22-0.89,0.22c-0.36,0-0.7-0.1-1.01-0.29c-0.32-0.19-0.57-0.47-0.76-0.84c-0.19-0.37-0.29-0.81-0.29-1.31
			c0-0.5,0.1-0.93,0.29-1.3c0.19-0.37,0.45-0.65,0.76-0.85c0.31-0.2,0.65-0.29,1.01-0.29c0.3,0,0.59,0.07,0.86,0.21
			c0.27,0.14,0.49,0.35,0.67,0.62V99.23z M71.46,105.05c0.28-0.28,0.42-0.71,0.42-1.3c0-0.59-0.14-1.02-0.42-1.3
			c-0.28-0.28-0.62-0.41-1.01-0.41c-0.41,0-0.73,0.15-0.98,0.45c-0.25,0.3-0.37,0.72-0.37,1.26c0,0.55,0.12,0.97,0.37,1.27
			c0.25,0.3,0.57,0.45,0.98,0.45C70.84,105.46,71.17,105.32,71.46,105.05z"/>
		<path d="M74.06,100.42c-0.1-0.11-0.15-0.23-0.15-0.37c0-0.14,0.05-0.26,0.15-0.36c0.1-0.1,0.22-0.16,0.36-0.16
			c0.14,0,0.27,0.05,0.36,0.15c0.1,0.1,0.15,0.23,0.15,0.37c0,0.14-0.05,0.26-0.15,0.37c-0.1,0.1-0.22,0.16-0.36,0.16
			S74.16,100.52,74.06,100.42z M74.79,106.08h-0.76v-4.67h0.76V106.08z"/>
		<path d="M79.27,101.4h0.77v4.68h-0.68c-0.01-0.31-0.03-0.56-0.05-0.76c-0.16,0.29-0.37,0.5-0.64,0.65
			c-0.27,0.14-0.56,0.22-0.88,0.22c-0.5,0-0.9-0.17-1.2-0.5c-0.3-0.33-0.45-0.8-0.45-1.4v-2.88h0.76v2.67
			c0,0.44,0.09,0.79,0.27,1.03c0.18,0.24,0.44,0.36,0.78,0.36c0.23,0,0.44-0.05,0.64-0.16c0.2-0.11,0.37-0.26,0.49-0.47
			s0.19-0.47,0.19-0.77V101.4z"/>
		<path d="M87.39,101.78c0.28,0.32,0.41,0.78,0.41,1.38v2.92h-0.76v-2.66c0-0.45-0.08-0.79-0.23-1.03
			c-0.16-0.24-0.39-0.36-0.69-0.36c-0.31,0-0.58,0.12-0.8,0.36c-0.22,0.24-0.33,0.58-0.33,1.04v2.66h-0.76v-2.66
			c0-0.44-0.08-0.79-0.23-1.03c-0.16-0.24-0.38-0.36-0.68-0.36c-0.31,0-0.58,0.12-0.8,0.36c-0.22,0.24-0.33,0.59-0.33,1.03v2.66
			h-0.76v-4.67h0.67c0.01,0.2,0.02,0.44,0.04,0.71c0.16-0.27,0.35-0.47,0.59-0.61c0.24-0.14,0.5-0.21,0.78-0.21
			c0.31,0,0.59,0.08,0.82,0.25s0.41,0.41,0.52,0.73c0.15-0.33,0.35-0.58,0.61-0.74s0.54-0.24,0.84-0.24
			C86.75,101.3,87.11,101.46,87.39,101.78z"/>
		<path d="M88.98,103.69v-0.65h3.28v0.65H88.98z"/>
		<path d="M97.3,103.03h-2.9v2.34h3.34v0.71H93.6v-6.6h4.04v0.71H94.4v2.12h2.9V103.03z"/>
		<path d="M100.37,103.14l1.23-1.73h0.87l-1.69,2.32l1.69,2.35h-0.94l-1.21-1.73l-1.24,1.73H98.2l1.71-2.31l-1.71-2.36h0.95
			L100.37,103.14z"/>
		<path d="M105.92,105.93c-0.25,0.17-0.56,0.25-0.95,0.25c-0.94,0-1.41-0.54-1.41-1.61v-2.5h-0.77v-0.67h0.77v-1.31h0.76v1.31h1.36
			v0.67h-1.36v2.41c0,0.65,0.25,0.98,0.74,0.98c0.22,0,0.42-0.05,0.6-0.16L105.92,105.93z"/>
		<path d="M109.05,101.36c0.12,0.04,0.22,0.09,0.3,0.15l-0.28,0.62c-0.12-0.07-0.26-0.11-0.43-0.11c-0.35,0-0.63,0.14-0.86,0.43
			c-0.22,0.29-0.33,0.7-0.33,1.25v2.38h-0.76v-4.67h0.67c0.01,0.3,0.03,0.55,0.05,0.76c0.26-0.58,0.67-0.87,1.23-0.87
			C108.8,101.3,108.93,101.32,109.05,101.36z"/>
		<path d="M112.77,101.78c0.34,0.32,0.5,0.78,0.5,1.37v2.92h-0.67c-0.02-0.31-0.03-0.5-0.04-0.59c-0.14,0.23-0.34,0.4-0.58,0.52
			c-0.24,0.12-0.52,0.17-0.83,0.17c-0.3,0-0.58-0.06-0.84-0.17c-0.26-0.11-0.47-0.28-0.62-0.5s-0.23-0.48-0.23-0.79
			c0-0.46,0.19-0.83,0.56-1.09s0.86-0.4,1.45-0.4c0.34,0,0.68,0.04,1.04,0.13v-0.08c0-0.44-0.09-0.76-0.27-0.98
			s-0.45-0.32-0.81-0.32c-0.29,0-0.53,0.06-0.72,0.18c-0.19,0.12-0.35,0.3-0.49,0.53l-0.58-0.33c0.14-0.32,0.38-0.58,0.71-0.78
			s0.7-0.29,1.12-0.29C112,101.3,112.43,101.46,112.77,101.78z M112.5,104.01c-0.38-0.1-0.72-0.14-1.04-0.14
			c-0.39,0-0.69,0.08-0.9,0.22c-0.21,0.15-0.32,0.36-0.32,0.63c0,0.25,0.09,0.45,0.27,0.59s0.41,0.21,0.7,0.21
			c0.35,0,0.66-0.1,0.91-0.31s0.38-0.49,0.38-0.86V104.01z"/>
		<path d="M18.65,116.08h-1.04l-0.8-0.89c-0.55,0.66-1.24,0.99-2.05,0.99c-0.4,0-0.76-0.08-1.08-0.22
			c-0.32-0.15-0.58-0.37-0.77-0.67c-0.19-0.29-0.29-0.64-0.29-1.04c0-0.5,0.13-0.91,0.4-1.22c0.27-0.31,0.64-0.59,1.12-0.84
			c-0.26-0.31-0.44-0.57-0.55-0.8c-0.11-0.23-0.16-0.46-0.16-0.72c0-0.32,0.08-0.6,0.24-0.83c0.16-0.23,0.37-0.41,0.63-0.53
			c0.26-0.12,0.55-0.18,0.87-0.18c0.34,0,0.63,0.06,0.88,0.19c0.25,0.13,0.44,0.3,0.58,0.53c0.14,0.22,0.2,0.47,0.2,0.76
			s-0.07,0.52-0.21,0.73s-0.31,0.38-0.52,0.52c-0.21,0.14-0.48,0.3-0.82,0.46l1.47,1.63c0.23-0.52,0.38-1.11,0.45-1.77h0.77
			c-0.13,0.93-0.37,1.71-0.71,2.35L18.65,116.08z M16.33,114.65l-1.76-1.97c-0.35,0.2-0.63,0.42-0.82,0.66
			c-0.2,0.23-0.29,0.53-0.29,0.88c0,0.4,0.13,0.71,0.38,0.92s0.57,0.32,0.96,0.32C15.39,115.46,15.91,115.19,16.33,114.65z
			 M14.39,111.18c0.09,0.17,0.24,0.39,0.46,0.65c0.37-0.19,0.65-0.37,0.85-0.54c0.19-0.18,0.29-0.4,0.29-0.66
			c0-0.22-0.07-0.41-0.21-0.55c-0.14-0.14-0.35-0.22-0.62-0.22s-0.49,0.07-0.65,0.22c-0.17,0.15-0.25,0.34-0.25,0.59
			C14.26,110.83,14.3,111,14.39,111.18z"/>
		<path d="M26.49,114.22c0,0.59-0.2,1.05-0.6,1.37s-1,0.49-1.78,0.49h-2.36v-6.59h2.08c0.46,0,0.86,0.07,1.21,0.22
			c0.34,0.14,0.61,0.35,0.79,0.62c0.19,0.27,0.28,0.58,0.28,0.95c0,0.63-0.28,1.08-0.85,1.35
			C26.08,112.86,26.49,113.39,26.49,114.22z M22.55,110.21v2.16h1.14c0.5,0,0.88-0.1,1.16-0.29s0.41-0.46,0.41-0.8
			c0-0.33-0.14-0.59-0.41-0.78s-0.66-0.29-1.15-0.29H22.55z M23.96,115.38c0.56,0,0.99-0.1,1.26-0.31c0.28-0.2,0.42-0.49,0.42-0.86
			c0-0.37-0.14-0.66-0.42-0.87c-0.28-0.21-0.7-0.31-1.26-0.31h-1.41v2.35H23.96z"/>
		<path d="M31.48,115.26c-0.17,0.29-0.43,0.52-0.77,0.68c-0.34,0.16-0.73,0.24-1.2,0.24c-0.64,0-1.19-0.15-1.65-0.45
			c-0.46-0.3-0.76-0.7-0.9-1.2l0.65-0.38c0.16,0.41,0.4,0.73,0.72,0.95c0.32,0.22,0.71,0.33,1.19,0.33c0.43,0,0.77-0.1,1.01-0.29
			c0.24-0.19,0.36-0.46,0.36-0.8c0-0.28-0.08-0.5-0.23-0.67s-0.33-0.3-0.55-0.4c-0.22-0.1-0.52-0.2-0.9-0.32
			c-0.43-0.13-0.77-0.25-1.03-0.36c-0.26-0.11-0.48-0.29-0.66-0.51c-0.18-0.23-0.27-0.53-0.27-0.9c0-0.38,0.1-0.7,0.29-0.98
			c0.19-0.27,0.46-0.48,0.8-0.62c0.34-0.14,0.72-0.21,1.14-0.21c0.59,0,1.06,0.13,1.43,0.39c0.36,0.26,0.61,0.58,0.73,0.98
			l-0.65,0.38c-0.14-0.32-0.33-0.57-0.57-0.75c-0.24-0.18-0.57-0.27-0.97-0.27c-0.41,0-0.73,0.09-0.98,0.27s-0.37,0.43-0.37,0.73
			c0,0.23,0.07,0.41,0.2,0.56c0.14,0.14,0.3,0.26,0.51,0.34c0.2,0.08,0.48,0.18,0.84,0.28c0.45,0.13,0.81,0.26,1.09,0.39
			s0.51,0.31,0.71,0.57c0.2,0.25,0.3,0.58,0.3,1C31.74,114.63,31.66,114.97,31.48,115.26z"/>
		<path d="M32.82,109.49l2.1,5.52l2-5.52h0.81l-2.5,6.59h-0.67l-2.62-6.59H32.82z"/>
		<path d="M42.4,115.26c-0.17,0.29-0.43,0.52-0.77,0.68c-0.34,0.16-0.73,0.24-1.2,0.24c-0.64,0-1.19-0.15-1.65-0.45
			c-0.46-0.3-0.76-0.7-0.9-1.2l0.65-0.38c0.16,0.41,0.4,0.73,0.72,0.95c0.32,0.22,0.71,0.33,1.19,0.33c0.43,0,0.77-0.1,1.01-0.29
			c0.24-0.19,0.36-0.46,0.36-0.8c0-0.28-0.08-0.5-0.23-0.67s-0.33-0.3-0.55-0.4c-0.22-0.1-0.52-0.2-0.9-0.32
			c-0.43-0.13-0.77-0.25-1.03-0.36c-0.26-0.11-0.48-0.29-0.66-0.51c-0.18-0.23-0.27-0.53-0.27-0.9c0-0.38,0.1-0.7,0.29-0.98
			c0.19-0.27,0.46-0.48,0.8-0.62c0.34-0.14,0.72-0.21,1.14-0.21c0.59,0,1.06,0.13,1.43,0.39c0.36,0.26,0.61,0.58,0.73,0.98
			l-0.65,0.38c-0.14-0.32-0.33-0.57-0.57-0.75c-0.24-0.18-0.57-0.27-0.97-0.27c-0.41,0-0.73,0.09-0.98,0.27s-0.37,0.43-0.37,0.73
			c0,0.23,0.07,0.41,0.2,0.56c0.14,0.14,0.3,0.26,0.51,0.34c0.2,0.08,0.48,0.18,0.84,0.28c0.45,0.13,0.81,0.26,1.09,0.39
			s0.51,0.31,0.71,0.57c0.2,0.25,0.3,0.58,0.3,1C42.66,114.63,42.57,114.97,42.4,115.26z"/>
		<path d="M48.42,114.22c0,0.59-0.2,1.05-0.6,1.37s-1,0.49-1.78,0.49h-2.36v-6.59h2.08c0.46,0,0.86,0.07,1.21,0.22
			c0.34,0.14,0.61,0.35,0.79,0.62c0.19,0.27,0.28,0.58,0.28,0.95c0,0.63-0.28,1.08-0.85,1.35
			C48.01,112.86,48.42,113.39,48.42,114.22z M44.48,110.21v2.16h1.14c0.5,0,0.88-0.1,1.16-0.29s0.41-0.46,0.41-0.8
			c0-0.33-0.14-0.59-0.41-0.78s-0.66-0.29-1.15-0.29H44.48z M45.89,115.38c0.56,0,0.99-0.1,1.26-0.31c0.28-0.2,0.42-0.49,0.42-0.86
			c0-0.37-0.14-0.66-0.42-0.87c-0.28-0.21-0.7-0.31-1.26-0.31h-1.41v2.35H45.89z"/>
		<path d="M51.02,109.49h4.9v0.71h-2.05v5.88h-0.8v-5.88h-2.04V109.49z"/>
		<path d="M58.27,111.36c0.12,0.04,0.22,0.09,0.3,0.15l-0.28,0.62c-0.12-0.07-0.26-0.11-0.43-0.11c-0.35,0-0.63,0.14-0.85,0.43
			c-0.22,0.29-0.33,0.7-0.33,1.25v2.38h-0.77v-4.67h0.68c0.01,0.3,0.03,0.55,0.05,0.76c0.26-0.58,0.68-0.87,1.23-0.87
			C58.01,111.3,58.15,111.32,58.27,111.36z"/>
		<path d="M61.98,111.78c0.34,0.32,0.5,0.78,0.5,1.37v2.92h-0.67c-0.02-0.31-0.03-0.5-0.04-0.59c-0.14,0.23-0.34,0.4-0.58,0.52
			c-0.24,0.12-0.52,0.17-0.83,0.17c-0.3,0-0.58-0.06-0.84-0.17c-0.26-0.11-0.47-0.28-0.63-0.5c-0.16-0.22-0.23-0.48-0.23-0.79
			c0-0.46,0.19-0.83,0.56-1.09s0.86-0.4,1.45-0.4c0.34,0,0.68,0.04,1.04,0.13v-0.08c0-0.44-0.09-0.76-0.27-0.98
			c-0.18-0.21-0.45-0.32-0.81-0.32c-0.29,0-0.53,0.06-0.72,0.18s-0.35,0.3-0.49,0.53l-0.58-0.33c0.14-0.32,0.38-0.58,0.71-0.78
			c0.33-0.2,0.7-0.29,1.12-0.29C61.22,111.3,61.65,111.46,61.98,111.78z M61.72,114.01c-0.38-0.1-0.72-0.14-1.03-0.14
			c-0.39,0-0.69,0.08-0.9,0.22c-0.21,0.15-0.32,0.36-0.32,0.63c0,0.25,0.09,0.45,0.27,0.59s0.41,0.21,0.7,0.21
			c0.35,0,0.66-0.1,0.91-0.31s0.38-0.49,0.38-0.86V114.01z"/>
		<path d="M67.26,111.8c0.3,0.33,0.45,0.8,0.45,1.4v2.88h-0.76v-2.66c0-0.44-0.09-0.79-0.27-1.03c-0.18-0.24-0.44-0.36-0.79-0.36
			c-0.23,0-0.44,0.05-0.64,0.16c-0.2,0.11-0.36,0.26-0.49,0.47s-0.19,0.46-0.19,0.77v2.66H63.8v-4.67h0.68
			c0.01,0.3,0.03,0.56,0.05,0.77c0.16-0.29,0.37-0.51,0.63-0.66c0.27-0.15,0.57-0.23,0.9-0.23C66.56,111.3,66.96,111.47,67.26,111.8
			z"/>
		<path d="M71.95,115.5c-0.15,0.22-0.35,0.38-0.62,0.5s-0.57,0.18-0.91,0.18c-0.46,0-0.85-0.1-1.18-0.31s-0.55-0.48-0.65-0.84
			l0.58-0.33c0.22,0.52,0.64,0.78,1.24,0.78c0.29,0,0.53-0.06,0.69-0.18c0.17-0.12,0.25-0.28,0.25-0.49c0-0.16-0.05-0.29-0.15-0.4
			c-0.1-0.1-0.22-0.18-0.37-0.24c-0.15-0.06-0.35-0.12-0.62-0.2c-0.32-0.09-0.58-0.18-0.77-0.26c-0.2-0.08-0.37-0.21-0.5-0.37
			c-0.14-0.17-0.21-0.38-0.21-0.65c0-0.28,0.08-0.53,0.23-0.74c0.15-0.21,0.36-0.37,0.62-0.48c0.26-0.11,0.55-0.17,0.86-0.17
			c0.41,0,0.76,0.09,1.05,0.27c0.29,0.18,0.49,0.43,0.59,0.74l-0.58,0.33c-0.1-0.2-0.24-0.36-0.43-0.47
			c-0.19-0.11-0.41-0.17-0.67-0.17c-0.26,0-0.47,0.05-0.63,0.16c-0.16,0.11-0.24,0.26-0.24,0.46c0,0.14,0.05,0.26,0.14,0.35
			c0.09,0.09,0.21,0.16,0.35,0.22c0.14,0.05,0.33,0.12,0.58,0.19c0.33,0.09,0.6,0.18,0.8,0.27s0.38,0.22,0.53,0.4
			c0.15,0.18,0.22,0.42,0.22,0.71C72.17,115.03,72.1,115.28,71.95,115.5z"/>
		<path d="M73.88,116.08h-0.76v-6.85h0.76V116.08z"/>
		<path d="M78.36,111.78c0.34,0.32,0.5,0.78,0.5,1.37v2.92h-0.67c-0.02-0.31-0.03-0.5-0.04-0.59c-0.14,0.23-0.34,0.4-0.58,0.52
			c-0.24,0.12-0.52,0.17-0.83,0.17c-0.3,0-0.58-0.06-0.84-0.17c-0.26-0.11-0.47-0.28-0.62-0.5s-0.23-0.48-0.23-0.79
			c0-0.46,0.19-0.83,0.56-1.09s0.86-0.4,1.45-0.4c0.34,0,0.68,0.04,1.04,0.13v-0.08c0-0.44-0.09-0.76-0.27-0.98S77.39,112,77.03,112
			c-0.29,0-0.53,0.06-0.72,0.18c-0.19,0.12-0.35,0.3-0.49,0.53l-0.58-0.33c0.14-0.32,0.38-0.58,0.71-0.78s0.7-0.29,1.12-0.29
			C77.6,111.3,78.03,111.46,78.36,111.78z M78.1,114.01c-0.38-0.1-0.72-0.14-1.04-0.14c-0.39,0-0.69,0.08-0.9,0.22
			c-0.21,0.15-0.32,0.36-0.32,0.63c0,0.25,0.09,0.45,0.27,0.59s0.41,0.21,0.7,0.21c0.35,0,0.66-0.1,0.91-0.31s0.38-0.49,0.38-0.86
			V114.01z"/>
		<path d="M82.72,115.93c-0.25,0.17-0.56,0.25-0.95,0.25c-0.94,0-1.41-0.54-1.41-1.61v-2.5h-0.77v-0.67h0.77v-1.31h0.76v1.31h1.36
			v0.67h-1.36v2.41c0,0.65,0.25,0.98,0.74,0.98c0.22,0,0.42-0.05,0.6-0.16L82.72,115.93z"/>
		<path d="M83.53,110.42c-0.1-0.11-0.15-0.23-0.15-0.37c0-0.14,0.05-0.26,0.15-0.36c0.1-0.1,0.22-0.16,0.36-0.16
			c0.14,0,0.27,0.05,0.36,0.15c0.1,0.1,0.15,0.23,0.15,0.37c0,0.14-0.05,0.26-0.15,0.37c-0.1,0.1-0.22,0.16-0.36,0.16
			S83.62,110.52,83.53,110.42z M84.26,116.08h-0.76v-4.67h0.76V116.08z"/>
		<path d="M85.7,112.48c0.21-0.37,0.48-0.66,0.82-0.87c0.34-0.21,0.71-0.31,1.11-0.31c0.4,0,0.76,0.1,1.11,0.31
			c0.34,0.2,0.61,0.49,0.82,0.86c0.2,0.37,0.31,0.8,0.31,1.27s-0.1,0.9-0.31,1.26s-0.48,0.66-0.82,0.86
			c-0.34,0.21-0.71,0.31-1.11,0.31c-0.4,0-0.77-0.1-1.11-0.31c-0.35-0.21-0.62-0.49-0.82-0.86c-0.2-0.37-0.31-0.79-0.31-1.26
			C85.39,113.27,85.5,112.85,85.7,112.48z M86.39,114.66c0.13,0.26,0.3,0.46,0.51,0.59c0.22,0.14,0.46,0.21,0.73,0.21
			c0.27,0,0.51-0.07,0.73-0.21c0.22-0.14,0.39-0.34,0.51-0.59s0.18-0.56,0.18-0.92c0-0.35-0.06-0.66-0.18-0.92s-0.29-0.46-0.51-0.59
			c-0.22-0.14-0.46-0.21-0.73-0.21c-0.27,0-0.51,0.07-0.73,0.21c-0.22,0.14-0.39,0.34-0.51,0.59s-0.19,0.56-0.19,0.92
			C86.2,114.1,86.27,114.4,86.39,114.66z"/>
		<path d="M94.44,111.8c0.3,0.33,0.45,0.8,0.45,1.4v2.88h-0.76v-2.66c0-0.44-0.09-0.79-0.27-1.03c-0.18-0.24-0.44-0.36-0.79-0.36
			c-0.23,0-0.44,0.05-0.64,0.16c-0.2,0.11-0.36,0.26-0.49,0.47s-0.19,0.46-0.19,0.77v2.66h-0.76v-4.67h0.67
			c0.01,0.3,0.03,0.56,0.05,0.77c0.16-0.29,0.37-0.51,0.63-0.66c0.27-0.15,0.57-0.23,0.9-0.23C93.74,111.3,94.14,111.47,94.44,111.8
			z"/>
		<path d="M100.75,109.49c0.44,0,0.84,0.09,1.19,0.26c0.35,0.17,0.62,0.42,0.82,0.72c0.2,0.31,0.3,0.66,0.3,1.06
			c0,0.4-0.1,0.75-0.29,1.06c-0.19,0.31-0.47,0.55-0.82,0.72c-0.35,0.17-0.75,0.26-1.2,0.26h-1.22v2.51h-0.8v-6.59H100.75z
			 M100.65,112.87c0.5,0,0.89-0.12,1.16-0.37c0.27-0.25,0.41-0.57,0.41-0.96s-0.14-0.71-0.41-0.96c-0.27-0.25-0.66-0.38-1.16-0.38
			h-1.12v2.67H100.65z"/>
		<path d="M106.78,111.78c0.34,0.32,0.5,0.78,0.5,1.37v2.92h-0.67c-0.02-0.31-0.03-0.5-0.04-0.59c-0.14,0.23-0.34,0.4-0.58,0.52
			c-0.24,0.12-0.52,0.17-0.83,0.17c-0.3,0-0.58-0.06-0.84-0.17c-0.26-0.11-0.47-0.28-0.62-0.5s-0.23-0.48-0.23-0.79
			c0-0.46,0.19-0.83,0.56-1.09s0.86-0.4,1.45-0.4c0.34,0,0.68,0.04,1.04,0.13v-0.08c0-0.44-0.09-0.76-0.27-0.98
			s-0.45-0.32-0.81-0.32c-0.29,0-0.53,0.06-0.72,0.18c-0.19,0.12-0.35,0.3-0.49,0.53l-0.58-0.33c0.14-0.32,0.38-0.58,0.71-0.78
			s0.7-0.29,1.12-0.29C106.02,111.3,106.45,111.46,106.78,111.78z M106.52,114.01c-0.38-0.1-0.72-0.14-1.04-0.14
			c-0.39,0-0.69,0.08-0.9,0.22c-0.21,0.15-0.32,0.36-0.32,0.63c0,0.25,0.09,0.45,0.27,0.59s0.41,0.21,0.7,0.21
			c0.35,0,0.66-0.1,0.91-0.31s0.38-0.49,0.38-0.86V114.01z"/>
		<path d="M111.64,114.85l0.6,0.35c-0.17,0.33-0.39,0.58-0.68,0.74c-0.29,0.16-0.61,0.24-0.98,0.24c-0.42,0-0.8-0.1-1.14-0.31
			s-0.61-0.49-0.81-0.86c-0.2-0.37-0.3-0.79-0.3-1.27c0-0.48,0.1-0.9,0.3-1.27c0.2-0.37,0.47-0.66,0.81-0.86s0.72-0.31,1.14-0.31
			c0.37,0,0.69,0.08,0.98,0.24s0.51,0.41,0.68,0.74l-0.6,0.35c-0.26-0.41-0.61-0.61-1.07-0.61c-0.42,0-0.76,0.15-1.03,0.46
			c-0.26,0.31-0.4,0.73-0.4,1.26s0.13,0.95,0.4,1.26s0.61,0.46,1.03,0.46C111.02,115.46,111.38,115.26,111.64,114.85z"/>
		<path d="M115.15,113.35l1.94,2.74h-0.96l-1.5-2.14l-0.81,0.9v1.24h-0.76v-6.85h0.76v4.63l2.14-2.45h0.94L115.15,113.35z"/>
	</g>
	
		<linearGradient id="SVGID_00000140015307828662184380000017236054127646103967_" gradientUnits="userSpaceOnUse" x1="45.9086" y1="53.6095" x2="61.8587" y2="48.3502">
		<stop  offset="0" style="stop-color:#00A29A"/>
		<stop  offset="1" style="stop-color:#187FC4"/>
	</linearGradient>
	
		<path style="opacity:0.86;fill:url(#SVGID_00000140015307828662184380000017236054127646103967_);stroke:#231815;stroke-miterlimit:10;" d="
		M60.13,53.73H47.2c-1.48,0-2.68-1.2-2.68-2.68v0c0-1.48,1.2-2.68,2.68-2.68h12.94c1.48,0,2.68,1.2,2.68,2.68v0
		C62.81,52.53,61.61,53.73,60.13,53.73z"/>
	
		<linearGradient id="SVGID_00000025427814196297894350000018267455129594558864_" gradientUnits="userSpaceOnUse" x1="68.5067" y1="53.6095" x2="84.4568" y2="48.3502">
		<stop  offset="0" style="stop-color:#00A29A"/>
		<stop  offset="1" style="stop-color:#187FC4"/>
	</linearGradient>
	
		<path style="opacity:0.86;fill:url(#SVGID_00000025427814196297894350000018267455129594558864_);stroke:#231815;stroke-miterlimit:10;" d="
		M82.73,53.73H69.79c-1.48,0-2.68-1.2-2.68-2.68v0c0-1.48,1.2-2.68,2.68-2.68h12.94c1.48,0,2.68,1.2,2.68,2.68v0
		C85.41,52.53,84.21,53.73,82.73,53.73z"/>
	
		<linearGradient id="SVGID_00000036943250915610863620000001127542718856478625_" gradientUnits="userSpaceOnUse" x1="45.8756" y1="62.8372" x2="61.8257" y2="57.5778">
		<stop  offset="0" style="stop-color:#00A29A"/>
		<stop  offset="1" style="stop-color:#187FC4"/>
	</linearGradient>
	
		<path style="opacity:0.86;fill:url(#SVGID_00000036943250915610863620000001127542718856478625_);stroke:#231815;stroke-miterlimit:10;" d="
		M60.1,62.96H47.16c-1.48,0-2.68-1.2-2.68-2.68v0c0-1.48,1.2-2.68,2.68-2.68H60.1c1.48,0,2.68,1.2,2.68,2.68v0
		C62.78,61.76,61.58,62.96,60.1,62.96z"/>
	
		<linearGradient id="SVGID_00000174563127229550808350000016252317214310763425_" gradientUnits="userSpaceOnUse" x1="68.4737" y1="62.8372" x2="84.4238" y2="57.5778">
		<stop  offset="0" style="stop-color:#00A29A"/>
		<stop  offset="1" style="stop-color:#187FC4"/>
	</linearGradient>
	
		<path style="opacity:0.86;fill:url(#SVGID_00000174563127229550808350000016252317214310763425_);stroke:#231815;stroke-miterlimit:10;" d="
		M82.7,62.96H69.76c-1.48,0-2.68-1.2-2.68-2.68v0c0-1.48,1.2-2.68,2.68-2.68H82.7c1.48,0,2.68,1.2,2.68,2.68v0
		C85.38,61.76,84.18,62.96,82.7,62.96z"/>
	
		<linearGradient id="SVGID_00000058587032723440491250000015407735979268862635_" gradientUnits="userSpaceOnUse" x1="45.8756" y1="72.0648" x2="61.8257" y2="66.8055">
		<stop  offset="0" style="stop-color:#00A29A"/>
		<stop  offset="1" style="stop-color:#187FC4"/>
	</linearGradient>
	
		<path style="opacity:0.86;fill:url(#SVGID_00000058587032723440491250000015407735979268862635_);stroke:#231815;stroke-miterlimit:10;" d="
		M60.1,72.19H47.16c-1.48,0-2.68-1.2-2.68-2.68l0,0c0-1.48,1.2-2.68,2.68-2.68H60.1c1.48,0,2.68,1.2,2.68,2.68l0,0
		C62.78,70.99,61.58,72.19,60.1,72.19z"/>
	
		<linearGradient id="SVGID_00000100370103279704381930000002390339455074578108_" gradientUnits="userSpaceOnUse" x1="68.4737" y1="72.0648" x2="84.4238" y2="66.8055">
		<stop  offset="0" style="stop-color:#00A29A"/>
		<stop  offset="1" style="stop-color:#187FC4"/>
	</linearGradient>
	
		<path style="opacity:0.86;fill:url(#SVGID_00000100370103279704381930000002390339455074578108_);stroke:#231815;stroke-miterlimit:10;" d="
		M82.7,72.19H69.76c-1.48,0-2.68-1.2-2.68-2.68l0,0c0-1.48,1.2-2.68,2.68-2.68H82.7c1.48,0,2.68,1.2,2.68,2.68l0,0
		C85.38,70.99,84.18,72.19,82.7,72.19z"/>
	
		<linearGradient id="SVGID_00000141456096269601180420000018224434603340838816_" gradientUnits="userSpaceOnUse" x1="47.7739" y1="84.3977" x2="83.0896" y2="72.7528">
		<stop  offset="0" style="stop-color:#00A29A"/>
		<stop  offset="1" style="stop-color:#187FC4"/>
	</linearGradient>
	
		<path style="opacity:0.86;fill:url(#SVGID_00000141456096269601180420000018224434603340838816_);stroke:#231815;stroke-miterlimit:10;" d="
		M82.7,81.42H47.2c-1.48,0-2.68-1.2-2.68-2.68v0c0-1.48,1.2-2.68,2.68-2.68h35.5c1.48,0,2.68,1.2,2.68,2.68v0
		C85.38,80.22,84.18,81.42,82.7,81.42z"/>
</g>
<g id="图层_2">
	<g>
		
			<linearGradient id="SVGID_00000105389038003790212520000014443965188202783671_" gradientUnits="userSpaceOnUse" x1="54.4778" y1="86.2905" x2="77.3269" y2="46.7147">
			<stop  offset="0" style="stop-color:#036EB8"/>
			<stop  offset="0.0146" style="stop-color:#1277A8"/>
			<stop  offset="0.0566" style="stop-color:#388E7E"/>
			<stop  offset="0.0996" style="stop-color:#57A15C"/>
			<stop  offset="0.143" style="stop-color:#70B041"/>
			<stop  offset="0.1872" style="stop-color:#81BB2E"/>
			<stop  offset="0.2326" style="stop-color:#8CC123"/>
			<stop  offset="0.2809" style="stop-color:#8FC31F"/>
			<stop  offset="0.5512" style="stop-color:#FAEE00"/>
			<stop  offset="0.7871" style="stop-color:#F39800"/>
			<stop  offset="1" style="stop-color:#E5352B"/>
		</linearGradient>
		
			<path style="fill:url(#SVGID_00000105389038003790212520000014443965188202783671_);stroke:#231815;stroke-width:2;stroke-miterlimit:10;" d="
			M85.09,60.5c-3.28-9-11.07-14.71-12.97-16.79c-0.94,1.73-5.02,7.62-5.02,7.62s-2.28-6.49-7.09-13.5
			c-2.83,2.87-9.17,10.04-11.94,16.09c0,0-6.92,13.67-1.56,24.22c2.57,4.84,6.62,7.31,7.96,8.14c0.9,0.55,1.68,0.93,1.9,1.03
			c1.09,0.52,4,1.81,7.79,2.08c5.78,0.41,10.19-1.77,11.42-2.42c1.89-1,6.18-3.65,8.82-8.83C88.03,71.04,86.08,64.03,85.09,60.5z
			 M65.77,79.97c-6.88-1.16-10.48-5.64-10.73-13.5c0.31-4.06,2.43-8.36,5.54-12.79l6.75,8.3l5.36-3.46
			C80.82,71.15,74.42,79.11,65.77,79.97z"/>
	</g>
	<g>
		<path class="st11" d="M85.09,60.5c-3.28-9-11.07-14.71-12.97-16.79c-0.94,1.73-5.02,7.62-5.02,7.62s-2.28-6.49-7.09-13.5
			c-2.83,2.87-9.17,10.04-11.94,16.09c0,0-6.92,13.67-1.56,24.22c2.57,4.84,6.62,7.31,7.96,8.14c0.9,0.55,1.68,0.93,1.9,1.03
			c1.09,0.52,4,1.81,7.79,2.08c5.78,0.41,10.19-1.77,11.42-2.42c1.89-1,6.18-3.65,8.82-8.83C88.03,71.04,86.08,64.03,85.09,60.5z
			 M65.77,79.97c-6.88-1.16-10.48-5.64-10.73-13.5c0.31-4.06,2.43-8.36,5.54-12.79l6.75,8.3l5.36-3.46
			C80.82,71.15,74.42,79.11,65.77,79.97z"/>
	</g>
</g>
</svg>
