<?xml version="1.0" encoding="utf-8"?>
<!-- Generator: Adobe Illustrator 26.0.2, SVG Export Plug-In . SVG Version: 6.00 Build 0)  -->
<svg version="1.1" id="图层_1" xmlns="http://www.w3.org/2000/svg" xmlns:xlink="http://www.w3.org/1999/xlink" x="0px" y="0px"
	 viewBox="0 0 128 128" style="enable-background:new 0 0 128 128;" xml:space="preserve">
<style type="text/css">
	.st0{fill:url(#SVGID_1_);stroke:#231815;stroke-width:4;stroke-miterlimit:10;}
	.st1{fill:none;stroke:#231815;stroke-width:4;stroke-miterlimit:10;}
	.st2{fill:url(#SVGID_00000062171268048038770690000007856225435981776306_);stroke:#231815;stroke-width:2;stroke-miterlimit:10;}
	.st3{fill:url(#SVGID_00000145781315974531246300000004388070881548545710_);stroke:#231815;stroke-width:2;stroke-miterlimit:10;}
	.st4{fill:url(#SVGID_00000099620763996678776650000015299272125120922535_);stroke:#231815;stroke-width:2;stroke-miterlimit:10;}
	.st5{fill:url(#SVGID_00000181069153236120845970000005126587631243901371_);stroke:#231815;stroke-width:2;stroke-miterlimit:10;}
	.st6{fill:url(#SVGID_00000152945744539458090070000008412129299607550140_);stroke:#231815;stroke-width:2;stroke-miterlimit:10;}
	.st7{fill:url(#SVGID_00000071519202523548462220000006967773422071829934_);stroke:#231815;stroke-width:4;stroke-miterlimit:10;}
</style>
<linearGradient id="SVGID_1_" gradientUnits="userSpaceOnUse" x1="31.3446" y1="23.0155" x2="94.8459" y2="88.5056">
	<stop  offset="0" style="stop-color:#FFFFFF"/>
	<stop  offset="0.4863" style="stop-color:#C9BC9C"/>
	<stop  offset="1" style="stop-color:#F39800"/>
</linearGradient>
<path class="st0" d="M98.78,94.22H27.75c-1.53,0-2.77-1.24-2.77-2.77V55.93V20.42c0-1.53,1.24-2.77,2.77-2.77h17.47h53.55
	c1.53,0,2.77,1.24,2.77,2.77v71.03C101.55,92.98,100.31,94.22,98.78,94.22z"/>
<line class="st1" x1="24.98" y1="43.37" x2="101.55" y2="43.37"/>
<line class="st1" x1="76.89" y1="17.65" x2="76.89" y2="94.22"/>
<line class="st1" x1="24.98" y1="68.71" x2="101.55" y2="68.71"/>
<line class="st1" x1="50.96" y1="17.65" x2="50.96" y2="94.22"/>
<linearGradient id="SVGID_00000084493770844091610090000004696764910590444726_" gradientUnits="userSpaceOnUse" x1="68.368" y1="33.792" x2="60.1849" y2="28.1821">
	<stop  offset="0" style="stop-color:#187FC4"/>
	<stop  offset="1" style="stop-color:#8FC31F;stop-opacity:0.4"/>
</linearGradient>
<circle style="fill:url(#SVGID_00000084493770844091610090000004696764910590444726_);stroke:#231815;stroke-width:2;stroke-miterlimit:10;" cx="64" cy="30.8" r="7.85"/>
<linearGradient id="SVGID_00000181796822075460489840000012365238924930568895_" gradientUnits="userSpaceOnUse" x1="93.6804" y1="58.9282" x2="85.4974" y2="53.3182">
	<stop  offset="0" style="stop-color:#187FC4"/>
	<stop  offset="1" style="stop-color:#8FC31F;stop-opacity:0.4"/>
</linearGradient>
<circle style="fill:url(#SVGID_00000181796822075460489840000012365238924930568895_);stroke:#231815;stroke-width:2;stroke-miterlimit:10;" cx="89.31" cy="55.93" r="7.85"/>
<linearGradient id="SVGID_00000068668622205415802780000005564151961332569531_" gradientUnits="userSpaceOnUse" x1="93.6804" y1="84.4734" x2="85.4974" y2="78.8634">
	<stop  offset="0" style="stop-color:#187FC4"/>
	<stop  offset="1" style="stop-color:#8FC31F;stop-opacity:0.4"/>
</linearGradient>
<circle style="fill:url(#SVGID_00000068668622205415802780000005564151961332569531_);stroke:#231815;stroke-width:2;stroke-miterlimit:10;" cx="89.31" cy="81.48" r="7.85"/>
<linearGradient id="SVGID_00000102507883755068871390000005836513783451425443_" gradientUnits="userSpaceOnUse" x1="68.368" y1="84.4734" x2="60.1849" y2="78.8634">
	<stop  offset="0" style="stop-color:#187FC4"/>
	<stop  offset="1" style="stop-color:#8FC31F;stop-opacity:0.4"/>
</linearGradient>
<circle style="fill:url(#SVGID_00000102507883755068871390000005836513783451425443_);stroke:#231815;stroke-width:2;stroke-miterlimit:10;" cx="64" cy="81.48" r="7.85"/>
<linearGradient id="SVGID_00000010995617447475886830000014647047223960816258_" gradientUnits="userSpaceOnUse" x1="42.5424" y1="84.4734" x2="34.3594" y2="78.8634">
	<stop  offset="0" style="stop-color:#187FC4"/>
	<stop  offset="1" style="stop-color:#8FC31F;stop-opacity:0.4"/>
</linearGradient>
<circle style="fill:url(#SVGID_00000010995617447475886830000014647047223960816258_);stroke:#231815;stroke-width:2;stroke-miterlimit:10;" cx="38.17" cy="81.48" r="7.85"/>
<linearGradient id="SVGID_00000132804094632515290970000015993062809776688563_" gradientUnits="userSpaceOnUse" x1="90.8891" y1="128.835" x2="40.5145" y2="94.3001">
	<stop  offset="0" style="stop-color:#FFFFFF"/>
	<stop  offset="0.4863" style="stop-color:#C9BC9C"/>
	<stop  offset="1" style="stop-color:#F39800"/>
</linearGradient>
<path style="fill:url(#SVGID_00000132804094632515290970000015993062809776688563_);stroke:#231815;stroke-width:4;stroke-miterlimit:10;" d="
	M113.31,121.95H14.69c-1.46,0-2.65-1.19-2.65-2.65v-17.79c0-1.46,1.19-2.65,2.65-2.65h98.62c1.46,0,2.65,1.19,2.65,2.65v17.79
	C115.96,120.76,114.77,121.95,113.31,121.95z"/>
<g>
	<path d="M49.07,107.51l0.76,0.44c-0.22,0.5-0.56,0.89-1.01,1.17c-0.46,0.28-0.99,0.42-1.58,0.42c-0.65,0-1.25-0.17-1.78-0.51
		c-0.54-0.34-0.96-0.81-1.27-1.41c-0.31-0.61-0.46-1.29-0.46-2.07s0.15-1.46,0.46-2.07s0.73-1.08,1.27-1.41
		c0.53-0.33,1.13-0.5,1.78-0.5c0.6,0,1.13,0.14,1.58,0.42s0.8,0.67,1.01,1.17l-0.76,0.44c-0.39-0.78-1.01-1.17-1.86-1.17
		c-0.49,0-0.93,0.13-1.31,0.39s-0.67,0.63-0.88,1.1s-0.31,1.01-0.31,1.63s0.1,1.16,0.31,1.63s0.5,0.84,0.88,1.1
		c0.38,0.26,0.82,0.39,1.31,0.39C48.06,108.68,48.68,108.29,49.07,107.51z"/>
	<path d="M54.92,104.4c0.36,0.39,0.54,0.94,0.54,1.65v3.38h-0.9v-3.12c0-0.52-0.1-0.92-0.31-1.2s-0.52-0.42-0.92-0.42
		c-0.27,0-0.52,0.06-0.75,0.18c-0.24,0.12-0.43,0.31-0.58,0.55c-0.15,0.24-0.22,0.54-0.22,0.9v3.11h-0.9v-8.03h0.9v3.38
		c0.19-0.31,0.44-0.54,0.74-0.71c0.3-0.16,0.64-0.24,1.01-0.24C54.1,103.82,54.56,104.01,54.92,104.4z"/>
	<path d="M57.9,109.43H57v-8.03h0.9V109.43z"/>
	<path d="M59.57,105.2c0.24-0.44,0.56-0.78,0.97-1.02s0.83-0.36,1.3-0.36c0.46,0,0.9,0.12,1.3,0.36s0.72,0.58,0.96,1.01
		c0.24,0.44,0.36,0.93,0.36,1.49c0,0.56-0.12,1.05-0.36,1.48s-0.56,0.77-0.96,1.01s-0.83,0.36-1.3,0.36c-0.46,0-0.9-0.12-1.3-0.36
		c-0.41-0.24-0.73-0.58-0.97-1.01c-0.24-0.43-0.36-0.93-0.36-1.48C59.2,106.13,59.33,105.64,59.57,105.2z M60.38,107.76
		c0.15,0.3,0.35,0.54,0.6,0.7c0.25,0.16,0.54,0.24,0.86,0.24c0.32,0,0.6-0.08,0.85-0.24c0.25-0.16,0.45-0.39,0.6-0.7
		s0.22-0.66,0.22-1.08c0-0.42-0.07-0.77-0.22-1.08s-0.34-0.54-0.6-0.7c-0.25-0.16-0.54-0.24-0.85-0.24c-0.32,0-0.6,0.08-0.86,0.24
		c-0.25,0.16-0.45,0.39-0.6,0.7s-0.22,0.66-0.22,1.08C60.15,107.1,60.23,107.46,60.38,107.76z"/>
	<path d="M68.53,103.89c0.14,0.05,0.26,0.1,0.35,0.17l-0.33,0.73c-0.14-0.08-0.31-0.13-0.51-0.13c-0.41,0-0.74,0.17-1,0.5
		c-0.26,0.33-0.39,0.82-0.39,1.46v2.8h-0.9v-5.48h0.79c0.01,0.35,0.04,0.65,0.06,0.9c0.31-0.68,0.79-1.02,1.45-1.02
		C68.23,103.82,68.39,103.84,68.53,103.89z"/>
	<path d="M69.75,102.78c-0.12-0.12-0.17-0.27-0.17-0.43c0-0.16,0.06-0.3,0.17-0.43s0.25-0.18,0.42-0.18c0.17,0,0.31,0.06,0.43,0.18
		c0.12,0.12,0.17,0.26,0.17,0.43c0,0.16-0.06,0.3-0.18,0.43c-0.12,0.12-0.26,0.18-0.42,0.18S69.86,102.9,69.75,102.78z
		 M70.61,109.43h-0.9v-5.48h0.9V109.43z"/>
	<path d="M76.31,104.4c0.35,0.39,0.53,0.94,0.53,1.65v3.38h-0.9v-3.12c0-0.52-0.1-0.92-0.31-1.2s-0.52-0.42-0.92-0.42
		c-0.27,0-0.52,0.06-0.75,0.18c-0.24,0.12-0.43,0.31-0.58,0.55c-0.15,0.24-0.22,0.54-0.22,0.9v3.11h-0.9v-5.48h0.79
		c0.01,0.35,0.04,0.65,0.06,0.91c0.18-0.34,0.43-0.59,0.74-0.77c0.31-0.18,0.66-0.26,1.05-0.26
		C75.49,103.82,75.95,104.01,76.31,104.4z"/>
	<path d="M81.9,104.15c0.36,0.22,0.63,0.52,0.82,0.9c0.19,0.38,0.29,0.8,0.29,1.27c0,0.2-0.01,0.38-0.04,0.54h-3.95
		c0.04,0.63,0.21,1.09,0.54,1.4c0.32,0.31,0.73,0.46,1.22,0.46c0.61,0,1.06-0.25,1.33-0.74l0.69,0.39c-0.14,0.37-0.4,0.66-0.79,0.87
		c-0.38,0.2-0.81,0.31-1.28,0.31c-0.49,0-0.94-0.11-1.35-0.34c-0.41-0.23-0.72-0.55-0.96-0.99c-0.24-0.43-0.35-0.95-0.35-1.56
		c0-0.58,0.12-1.09,0.35-1.52c0.24-0.43,0.55-0.76,0.95-0.98c0.39-0.23,0.83-0.34,1.3-0.34S81.54,103.93,81.9,104.15z M79.59,105.02
		c-0.29,0.25-0.48,0.62-0.55,1.11h2.99c-0.02-0.47-0.16-0.84-0.41-1.1c-0.25-0.26-0.58-0.39-0.99-0.39
		C80.23,104.64,79.89,104.77,79.59,105.02z"/>
	<path d="M24.71,110.7h5.74v0.83h-2.41v6.89H27.1v-6.89h-2.4V110.7z"/>
	<path d="M33.21,112.89c0.14,0.05,0.26,0.1,0.35,0.17l-0.33,0.73c-0.14-0.08-0.31-0.13-0.51-0.13c-0.41,0-0.74,0.17-1,0.5
		c-0.26,0.33-0.39,0.82-0.39,1.46v2.8h-0.9v-5.48h0.79c0.01,0.35,0.04,0.65,0.06,0.9c0.31-0.68,0.79-1.02,1.45-1.02
		C32.91,112.82,33.07,112.84,33.21,112.89z"/>
	<path d="M37.56,113.39c0.39,0.38,0.59,0.91,0.59,1.61v3.43h-0.79c-0.02-0.36-0.04-0.59-0.04-0.7c-0.17,0.27-0.4,0.47-0.68,0.61
		c-0.29,0.14-0.61,0.21-0.98,0.21c-0.35,0-0.68-0.07-0.99-0.2s-0.55-0.32-0.73-0.58c-0.18-0.26-0.27-0.56-0.27-0.92
		c0-0.54,0.22-0.97,0.66-1.28c0.44-0.31,1.01-0.47,1.71-0.47c0.39,0,0.8,0.05,1.22,0.16v-0.09c0-0.51-0.1-0.9-0.31-1.15
		s-0.52-0.38-0.94-0.38c-0.34,0-0.62,0.07-0.84,0.21c-0.23,0.14-0.42,0.35-0.57,0.62l-0.69-0.39c0.17-0.38,0.44-0.68,0.83-0.91
		c0.38-0.23,0.82-0.34,1.31-0.34C36.66,112.82,37.17,113.01,37.56,113.39z M37.26,116c-0.44-0.11-0.85-0.17-1.21-0.17
		c-0.46,0-0.81,0.09-1.06,0.26c-0.25,0.18-0.38,0.42-0.38,0.74c0,0.29,0.11,0.53,0.32,0.69s0.49,0.25,0.82,0.25
		c0.42,0,0.77-0.12,1.07-0.36c0.3-0.24,0.44-0.58,0.44-1.01V116z"/>
	<path d="M43.75,113.4c0.35,0.39,0.53,0.94,0.53,1.65v3.38h-0.9v-3.12c0-0.52-0.1-0.92-0.31-1.2s-0.52-0.42-0.92-0.42
		c-0.27,0-0.52,0.06-0.75,0.18c-0.24,0.12-0.43,0.31-0.58,0.55c-0.15,0.24-0.22,0.54-0.22,0.9v3.11h-0.9v-5.48h0.79
		c0.01,0.35,0.04,0.65,0.06,0.91c0.18-0.34,0.43-0.59,0.74-0.77c0.31-0.18,0.66-0.26,1.05-0.26
		C42.93,112.82,43.4,113.01,43.75,113.4z"/>
	<path d="M49.26,117.74c-0.17,0.25-0.41,0.45-0.72,0.59c-0.31,0.14-0.67,0.21-1.07,0.21c-0.53,0-1-0.12-1.38-0.36
		s-0.64-0.57-0.76-0.98l0.69-0.39c0.26,0.61,0.75,0.92,1.46,0.92c0.34,0,0.62-0.07,0.81-0.21c0.2-0.14,0.3-0.33,0.3-0.58
		c0-0.19-0.06-0.34-0.17-0.46c-0.12-0.12-0.26-0.21-0.43-0.28c-0.17-0.07-0.41-0.15-0.72-0.24c-0.37-0.11-0.68-0.21-0.91-0.31
		s-0.43-0.24-0.59-0.44c-0.16-0.19-0.24-0.45-0.24-0.76c0-0.33,0.09-0.62,0.27-0.87c0.18-0.25,0.42-0.43,0.73-0.56
		s0.64-0.2,1.01-0.2c0.48,0,0.89,0.11,1.23,0.32c0.34,0.21,0.58,0.5,0.7,0.87l-0.69,0.39c-0.11-0.24-0.28-0.42-0.5-0.55
		c-0.22-0.13-0.48-0.2-0.79-0.2c-0.31,0-0.56,0.06-0.74,0.18c-0.19,0.12-0.28,0.3-0.28,0.53c0,0.17,0.05,0.31,0.16,0.41
		c0.11,0.11,0.24,0.19,0.41,0.25c0.16,0.06,0.39,0.14,0.69,0.22c0.39,0.11,0.7,0.21,0.94,0.31c0.24,0.1,0.44,0.26,0.62,0.47
		c0.17,0.21,0.26,0.49,0.26,0.83C49.51,117.2,49.43,117.49,49.26,117.74z"/>
	<path d="M51.52,118.43h-0.9v-8.03h0.9V118.43z"/>
	<path d="M56.78,113.39c0.39,0.38,0.59,0.91,0.59,1.61v3.43h-0.79c-0.02-0.36-0.04-0.59-0.04-0.7c-0.17,0.27-0.4,0.47-0.68,0.61
		c-0.29,0.14-0.61,0.21-0.98,0.21c-0.35,0-0.68-0.07-0.99-0.2s-0.55-0.32-0.73-0.58c-0.18-0.26-0.27-0.56-0.27-0.92
		c0-0.54,0.22-0.97,0.66-1.28c0.44-0.31,1.01-0.47,1.71-0.47c0.39,0,0.8,0.05,1.22,0.16v-0.09c0-0.51-0.1-0.9-0.31-1.15
		s-0.52-0.38-0.94-0.38c-0.34,0-0.62,0.07-0.84,0.21c-0.23,0.14-0.42,0.35-0.57,0.62l-0.69-0.39c0.17-0.38,0.44-0.68,0.83-0.91
		c0.38-0.23,0.82-0.34,1.31-0.34C55.88,112.82,56.38,113.01,56.78,113.39z M56.47,116c-0.44-0.11-0.85-0.17-1.21-0.17
		c-0.46,0-0.81,0.09-1.06,0.26c-0.25,0.18-0.38,0.42-0.38,0.74c0,0.29,0.11,0.53,0.32,0.69s0.49,0.25,0.82,0.25
		c0.42,0,0.77-0.12,1.07-0.36c0.3-0.24,0.44-0.58,0.44-1.01V116z"/>
	<path d="M61.89,118.25c-0.29,0.2-0.66,0.3-1.11,0.3c-1.11,0-1.66-0.63-1.66-1.89v-2.93h-0.91v-0.78h0.91v-1.53h0.9v1.53h1.6v0.78
		h-1.6v2.83c0,0.77,0.29,1.15,0.87,1.15c0.25,0,0.49-0.06,0.71-0.19L61.89,118.25z"/>
	<path d="M62.83,111.78c-0.12-0.12-0.17-0.27-0.17-0.43c0-0.16,0.06-0.3,0.17-0.43s0.25-0.18,0.42-0.18c0.17,0,0.31,0.06,0.43,0.18
		c0.12,0.12,0.17,0.26,0.17,0.43c0,0.16-0.06,0.3-0.18,0.43c-0.12,0.12-0.26,0.18-0.42,0.18S62.95,111.9,62.83,111.78z
		 M63.69,118.43h-0.9v-5.48h0.9V118.43z"/>
	<path d="M65.39,114.2c0.24-0.44,0.56-0.78,0.97-1.02s0.83-0.36,1.3-0.36c0.46,0,0.9,0.12,1.3,0.36s0.72,0.58,0.96,1.01
		c0.24,0.44,0.36,0.93,0.36,1.49c0,0.56-0.12,1.05-0.36,1.48s-0.56,0.77-0.96,1.01s-0.83,0.36-1.3,0.36c-0.46,0-0.9-0.12-1.3-0.36
		c-0.41-0.24-0.73-0.58-0.97-1.01c-0.24-0.43-0.36-0.93-0.36-1.48C65.02,115.13,65.14,114.64,65.39,114.2z M66.19,116.76
		c0.15,0.3,0.35,0.54,0.6,0.7c0.25,0.16,0.54,0.24,0.86,0.24c0.32,0,0.6-0.08,0.85-0.24c0.25-0.16,0.45-0.39,0.6-0.7
		s0.22-0.66,0.22-1.08c0-0.42-0.07-0.77-0.22-1.08s-0.34-0.54-0.6-0.7c-0.25-0.16-0.54-0.24-0.85-0.24c-0.32,0-0.6,0.08-0.86,0.24
		c-0.25,0.16-0.45,0.39-0.6,0.7s-0.22,0.66-0.22,1.08C65.97,116.1,66.05,116.46,66.19,116.76z"/>
	<path d="M75.63,113.4c0.35,0.39,0.53,0.94,0.53,1.65v3.38h-0.9v-3.12c0-0.52-0.1-0.92-0.31-1.2s-0.52-0.42-0.92-0.42
		c-0.27,0-0.52,0.06-0.75,0.18c-0.24,0.12-0.43,0.31-0.58,0.55c-0.15,0.24-0.22,0.54-0.22,0.9v3.11h-0.9v-5.48h0.79
		c0.01,0.35,0.04,0.65,0.06,0.91c0.18-0.34,0.43-0.59,0.74-0.77c0.31-0.18,0.66-0.26,1.05-0.26
		C74.81,112.82,75.28,113.01,75.63,113.4z"/>
	<path d="M83.03,110.7c0.52,0,0.99,0.1,1.4,0.31c0.41,0.2,0.73,0.49,0.97,0.85s0.35,0.78,0.35,1.24s-0.12,0.88-0.34,1.24
		s-0.55,0.64-0.96,0.84c-0.41,0.2-0.88,0.3-1.41,0.3h-1.44v2.95h-0.94v-7.73H83.03z M82.91,114.66c0.59,0,1.04-0.15,1.36-0.44
		s0.48-0.67,0.48-1.12c0-0.46-0.16-0.83-0.48-1.13c-0.32-0.29-0.77-0.44-1.36-0.44h-1.32v3.14H82.91z"/>
	<path d="M90.11,113.39c0.39,0.38,0.59,0.91,0.59,1.61v3.43h-0.79c-0.02-0.36-0.04-0.59-0.04-0.7c-0.17,0.27-0.4,0.47-0.68,0.61
		c-0.29,0.14-0.61,0.21-0.98,0.21c-0.35,0-0.68-0.07-0.99-0.2c-0.31-0.13-0.55-0.32-0.73-0.58c-0.18-0.26-0.27-0.56-0.27-0.92
		c0-0.54,0.22-0.97,0.66-1.28c0.44-0.31,1.01-0.47,1.7-0.47c0.39,0,0.8,0.05,1.22,0.16v-0.09c0-0.51-0.1-0.9-0.31-1.15
		c-0.21-0.25-0.52-0.38-0.95-0.38c-0.34,0-0.62,0.07-0.84,0.21c-0.22,0.14-0.42,0.35-0.57,0.62l-0.69-0.39
		c0.17-0.38,0.45-0.68,0.83-0.91c0.38-0.23,0.82-0.34,1.31-0.34C89.21,112.82,89.72,113.01,90.11,113.39z M89.81,116
		c-0.44-0.11-0.85-0.17-1.21-0.17c-0.46,0-0.81,0.09-1.06,0.26s-0.38,0.42-0.38,0.74c0,0.29,0.11,0.53,0.32,0.69
		c0.21,0.17,0.49,0.25,0.82,0.25c0.42,0,0.77-0.12,1.07-0.36c0.3-0.24,0.44-0.58,0.44-1.01V116z"/>
	<path d="M95.8,116.98l0.71,0.41c-0.2,0.39-0.46,0.67-0.8,0.87c-0.33,0.19-0.72,0.29-1.15,0.29c-0.49,0-0.94-0.12-1.34-0.36
		c-0.4-0.24-0.72-0.58-0.95-1.01s-0.35-0.93-0.35-1.49c0-0.56,0.12-1.06,0.35-1.49s0.55-0.77,0.95-1.01
		c0.4-0.24,0.85-0.36,1.34-0.36c0.43,0,0.81,0.09,1.15,0.29c0.33,0.19,0.6,0.48,0.8,0.87l-0.71,0.41c-0.3-0.48-0.72-0.72-1.26-0.72
		c-0.49,0-0.89,0.18-1.2,0.54c-0.31,0.36-0.46,0.85-0.46,1.48c0,0.63,0.15,1.12,0.46,1.48c0.31,0.36,0.71,0.54,1.2,0.54
		C95.08,117.7,95.5,117.46,95.8,116.98z"/>
	<path d="M99.92,115.22l2.27,3.21h-1.13l-1.76-2.51l-0.95,1.06v1.46h-0.9v-8.03h0.9v5.43l2.51-2.87h1.1L99.92,115.22z"/>
</g>
<g>
</g>
<g>
</g>
<g>
</g>
<g>
</g>
<g>
</g>
<g>
</g>
</svg>
